STARTFONT 2.1
FONT -Monotype-Bookman Old Style-Bold-I-Normal--14-140-75-75-P-83-iso8859-4
SIZE 14 75 75
FONTBOUNDINGBOX 24 17 -3 -4

STARTPROPERTIES 24
FOUNDRY "Monotype"
FAMILY_NAME "Bookman Old Style"
WEIGHT_NAME "Bold"
SLANT "I"
SETWIDTH_NAME "Normal"
ADD_STYLE_NAME ""
PIXEL_SIZE 14
POINT_SIZE 140
RESOLUTION_X 75
RESOLUTION_Y 75
SPACING "P"
AVERAGE_WIDTH 83
CHARSET_REGISTRY "iso8859"
CHARSET_ENCODING "4"
FACE_NAME "Bookman Old Style Bold Italic ISO Latin4"
_DEC_DEVICE_FONTNAMES "PS=bookmanoldstyle-bit-lat4"
COPYRIGHT "Copyright (c) 1994 Monotype Typography Ltd."
CAP_HEIGHT 12
X_HEIGHT 9
WEIGHT 10
QUAD_WIDTH 10
DEFAULT_CHAR 160
FONT_DESCENT 4
FONT_ASCENT 14
ENDPROPERTIES

CHARS 191

STARTCHAR space
ENCODING 32
SWIDTH 340 0
DWIDTH 5 0
BBX 0 0 0 0
BITMAP
ENDCHAR

STARTCHAR exclam
ENCODING 33
SWIDTH 320 0
DWIDTH 5 0
BBX 4 11 1 0
BITMAP
10
30
30
30
60
60
60
40
00
C0
C0
ENDCHAR

STARTCHAR quotedbl
ENCODING 34
SWIDTH 380 0
DWIDTH 6 0
BBX 5 4 2 6
BITMAP
48
D8
D8
90
ENDCHAR

STARTCHAR numbersign
ENCODING 35
SWIDTH 600 0
DWIDTH 9 0
BBX 8 10 1 0
BITMAP
36
36
36
7F
36
FF
6C
6C
6C
6C
ENDCHAR

STARTCHAR dollar
ENCODING 36
SWIDTH 680 0
DWIDTH 10 0
BBX 8 13 2 -2
BITMAP
04
1E
37
6B
79
3E
0F
8B
D3
F6
5C
10
10
ENDCHAR

STARTCHAR percent
ENCODING 37
SWIDTH 880 0
DWIDTH 13 0
BBX 12 10 2 0
BITMAP
3820
6C40
CC80
CD00
DAE0
75B0
0B30
1330
2360
41C0
ENDCHAR

STARTCHAR ampersand
ENCODING 38
SWIDTH 980 0
DWIDTH 15 0
BBX 14 10 1 0
BITMAP
0F00
1980
1B00
3E78
6630
C330
C364
C1CC
63E8
3C70
ENDCHAR

STARTCHAR quoteright
ENCODING 39
SWIDTH 320 0
DWIDTH 5 0
BBX 3 4 2 7
BITMAP
60
60
40
80
ENDCHAR

STARTCHAR parenleft
ENCODING 40
SWIDTH 260 0
DWIDTH 4 0
BBX 5 14 1 -3
BITMAP
08
18
30
30
60
60
60
60
C0
C0
C0
C0
40
40
ENDCHAR

STARTCHAR parenright
ENCODING 41
SWIDTH 260 0
DWIDTH 4 0
BBX 5 14 0 -3
BITMAP
10
10
18
18
18
18
30
30
30
30
60
60
C0
80
ENDCHAR

STARTCHAR asterisk
ENCODING 42
SWIDTH 460 0
DWIDTH 7 0
BBX 6 6 2 5
BITMAP
10
54
EC
38
D8
54
ENDCHAR

STARTCHAR plus
ENCODING 43
SWIDTH 600 0
DWIDTH 9 0
BBX 7 7 2 2
BITMAP
10
10
10
FE
10
10
10
ENDCHAR

STARTCHAR comma
ENCODING 44
SWIDTH 340 0
DWIDTH 5 0
BBX 3 4 1 -2
BITMAP
60
60
40
80
ENDCHAR

STARTCHAR minus
ENCODING 45
SWIDTH 600 0
DWIDTH 9 0
BBX 7 1 2 5
BITMAP
FE
ENDCHAR

STARTCHAR period
ENCODING 46
SWIDTH 340 0
DWIDTH 5 0
BBX 2 2 2 0
BITMAP
C0
C0
ENDCHAR

STARTCHAR slash
ENCODING 47
SWIDTH 360 0
DWIDTH 9 0
BBX 8 14 1 -3
BITMAP
03
03
06
06
0C
0C
18
18
30
30
60
60
C0
C0
ENDCHAR

STARTCHAR zero
ENCODING 48
SWIDTH 680 0
DWIDTH 10 0
BBX 9 10 2 0
BITMAP
0F00
3380
6180
6180
C180
C180
C300
C300
E600
7800
ENDCHAR

STARTCHAR one
ENCODING 49
SWIDTH 680 0
DWIDTH 10 0
BBX 6 10 3 0
BITMAP
04
3C
0C
0C
18
18
18
30
30
FC
ENDCHAR

STARTCHAR two
ENCODING 50
SWIDTH 680 0
DWIDTH 10 0
BBX 10 10 1 0
BITMAP
1F00
3180
20C0
40C0
0180
0300
0E00
1880
6180
FF00
ENDCHAR

STARTCHAR three
ENCODING 51
SWIDTH 680 0
DWIDTH 10 0
BBX 9 10 2 0
BITMAP
1E00
3300
6180
0300
1E00
0700
0300
C300
E600
7C00
ENDCHAR

STARTCHAR four
ENCODING 52
SWIDTH 680 0
DWIDTH 10 0
BBX 9 10 1 0
BITMAP
0380
0780
0D80
1980
3300
6300
FF80
0600
0600
0600
ENDCHAR

STARTCHAR five
ENCODING 53
SWIDTH 680 0
DWIDTH 10 0
BBX 10 10 1 0
BITMAP
1FC0
1800
3000
3C00
0F00
0380
0180
C380
E700
3C00
ENDCHAR

STARTCHAR six
ENCODING 54
SWIDTH 680 0
DWIDTH 10 0
BBX 9 10 2 0
BITMAP
0780
1C00
3000
6E00
FB00
E180
C180
C180
6300
3E00
ENDCHAR

STARTCHAR seven
ENCODING 55
SWIDTH 680 0
DWIDTH 10 0
BBX 10 10 2 0
BITMAP
7FC0
C180
C300
8600
0E00
1C00
1800
3800
3000
7000
ENDCHAR

STARTCHAR eight
ENCODING 56
SWIDTH 680 0
DWIDTH 10 0
BBX 8 10 2 0
BITMAP
1E
33
63
73
3E
7C
CE
C7
C6
7C
ENDCHAR

STARTCHAR nine
ENCODING 57
SWIDTH 680 0
DWIDTH 10 0
BBX 9 10 2 0
BITMAP
3E00
6300
C180
C180
C380
6F80
3B00
0600
1C00
F000
ENDCHAR

STARTCHAR colon
ENCODING 58
SWIDTH 340 0
DWIDTH 5 0
BBX 4 7 1 0
BITMAP
30
30
00
00
00
C0
C0
ENDCHAR

STARTCHAR semicolon
ENCODING 59
SWIDTH 340 0
DWIDTH 5 0
BBX 4 9 1 -2
BITMAP
30
30
00
00
00
60
60
40
80
ENDCHAR

STARTCHAR less
ENCODING 60
SWIDTH 620 0
DWIDTH 9 0
BBX 8 8 2 1
BITMAP
03
0E
38
E0
E0
38
0E
03
ENDCHAR

STARTCHAR equal
ENCODING 61
SWIDTH 600 0
DWIDTH 9 0
BBX 7 4 2 3
BITMAP
FE
00
00
FE
ENDCHAR

STARTCHAR greater
ENCODING 62
SWIDTH 620 0
DWIDTH 9 0
BBX 8 8 3 1
BITMAP
C0
70
1C
07
07
1C
70
C0
ENDCHAR

STARTCHAR question
ENCODING 63
SWIDTH 620 0
DWIDTH 9 0
BBX 8 11 2 0
BITMAP
3C
66
C3
03
06
0E
7C
40
00
C0
C0
ENDCHAR

STARTCHAR at
ENCODING 64
SWIDTH 780 0
DWIDTH 12 0
BBX 13 14 0 -3
BITMAP
0FE0
1010
2008
4348
46C8
8CC8
8C88
9988
9B90
5DA8
48C8
2010
1860
0780
ENDCHAR

STARTCHAR A
ENCODING 65
SWIDTH 720 0
DWIDTH 11 0
BBX 11 10 0 0
BITMAP
0180
0380
0780
0580
0D80
18C0
1FC0
30C0
60C0
F1E0
ENDCHAR

STARTCHAR B
ENCODING 66
SWIDTH 720 0
DWIDTH 11 0
BBX 10 10 1 0
BITMAP
3F80
18C0
18C0
30C0
3F00
3180
30C0
60C0
6180
FF00
ENDCHAR

STARTCHAR C
ENCODING 67
SWIDTH 700 0
DWIDTH 10 0
BBX 10 10 1 0
BITMAP
0F40
39C0
70C0
6040
E000
C000
C000
C080
6180
3F00
ENDCHAR

STARTCHAR D
ENCODING 68
SWIDTH 760 0
DWIDTH 11 0
BBX 11 10 0 0
BITMAP
3F00
19C0
18E0
3060
3060
3060
3060
60C0
6380
FE00
ENDCHAR

STARTCHAR E
ENCODING 69
SWIDTH 720 0
DWIDTH 11 0
BBX 11 10 0 0
BITMAP
3FC0
18E0
1860
3100
3F00
3100
3000
6060
60E0
FFC0
ENDCHAR

STARTCHAR F
ENCODING 70
SWIDTH 660 0
DWIDTH 10 0
BBX 11 10 0 0
BITMAP
3FC0
18E0
1860
3100
3F00
3100
3000
6000
6000
F000
ENDCHAR

STARTCHAR G
ENCODING 71
SWIDTH 760 0
DWIDTH 11 0
BBX 11 10 1 0
BITMAP
0F40
39C0
70C0
6040
E000
C3E0
C1C0
C180
6380
3D80
ENDCHAR

STARTCHAR H
ENCODING 72
SWIDTH 800 0
DWIDTH 12 0
BBX 12 10 1 0
BITMAP
3CF0
1860
1860
30C0
3FC0
30C0
30C0
6180
6180
F3C0
ENDCHAR

STARTCHAR I
ENCODING 73
SWIDTH 380 0
DWIDTH 6 0
BBX 6 10 1 0
BITMAP
3C
18
18
30
30
30
30
60
60
F0
ENDCHAR

STARTCHAR J
ENCODING 74
SWIDTH 620 0
DWIDTH 9 0
BBX 10 10 0 0
BITMAP
03C0
0180
0180
0300
0300
0300
0300
4600
E600
7C00
ENDCHAR

STARTCHAR K
ENCODING 75
SWIDTH 780 0
DWIDTH 12 0
BBX 12 10 1 0
BITMAP
3CF0
1860
19C0
3300
3600
3E00
3300
6180
61C0
F3E0
ENDCHAR

STARTCHAR L
ENCODING 76
SWIDTH 640 0
DWIDTH 10 0
BBX 9 10 1 0
BITMAP
3C00
1800
1800
3000
3000
3000
3000
6180
6380
FF00
ENDCHAR

STARTCHAR M
ENCODING 77
SWIDTH 860 0
DWIDTH 13 0
BBX 15 10 0 0
BITMAP
3E1E
163C
166C
3658
26D8
2698
6798
4730
4730
F678
ENDCHAR

STARTCHAR N
ENCODING 78
SWIDTH 740 0
DWIDTH 11 0
BBX 11 10 1 0
BITMAP
3CE0
1C40
1C40
36C0
2680
2680
6680
4380
4300
E300
ENDCHAR

STARTCHAR O
ENCODING 79
SWIDTH 760 0
DWIDTH 11 0
BBX 10 10 1 0
BITMAP
0F00
3980
60C0
60C0
C0C0
C0C0
C180
C180
6700
3C00
ENDCHAR

STARTCHAR P
ENCODING 80
SWIDTH 640 0
DWIDTH 10 0
BBX 10 10 1 0
BITMAP
3F00
1980
18C0
30C0
3180
3F00
3000
6000
6000
F000
ENDCHAR

STARTCHAR Q
ENCODING 81
SWIDTH 760 0
DWIDTH 11 0
BBX 10 13 1 -3
BITMAP
0F00
3980
60C0
60C0
C0C0
C0C0
C180
C180
6700
3C00
1800
0C80
0700
ENDCHAR

STARTCHAR R
ENCODING 82
SWIDTH 740 0
DWIDTH 11 0
BBX 11 10 1 0
BITMAP
3F80
18C0
1860
3060
30C0
3F00
3300
6180
60C0
F1E0
ENDCHAR

STARTCHAR S
ENCODING 83
SWIDTH 700 0
DWIDTH 10 0
BBX 10 10 1 0
BITMAP
1F40
33C0
60C0
7040
3E00
1F00
8380
C180
E300
BE00
ENDCHAR

STARTCHAR T
ENCODING 84
SWIDTH 700 0
DWIDTH 9 0
BBX 10 10 1 0
BITMAP
7F80
6D80
4C80
CCC0
1800
1800
1800
3000
3000
7800
ENDCHAR

STARTCHAR U
ENCODING 85
SWIDTH 740 0
DWIDTH 12 0
BBX 11 10 2 0
BITMAP
78E0
3040
3040
60C0
6080
6080
C180
C100
E300
7E00
ENDCHAR

STARTCHAR V
ENCODING 86
SWIDTH 660 0
DWIDTH 10 0
BBX 10 10 2 0
BITMAP
F3C0
6180
6300
6300
6600
6600
3C00
3800
3000
3000
ENDCHAR

STARTCHAR W
ENCODING 87
SWIDTH 1000 0
DWIDTH 15 0
BBX 15 10 2 0
BITMAP
F79E
630C
6318
6318
6730
6530
3DE0
38E0
30C0
30C0
ENDCHAR

STARTCHAR X
ENCODING 88
SWIDTH 740 0
DWIDTH 11 0
BBX 13 10 0 0
BITMAP
3E78
1C30
0C60
06C0
0780
0F00
1B80
3180
61C0
F3E0
ENDCHAR

STARTCHAR Y
ENCODING 89
SWIDTH 660 0
DWIDTH 10 0
BBX 10 10 2 0
BITMAP
F3C0
6180
6300
3200
3C00
1800
1800
3000
3000
7800
ENDCHAR

STARTCHAR Z
ENCODING 90
SWIDTH 680 0
DWIDTH 10 0
BBX 11 10 1 0
BITMAP
1FE0
38C0
3180
0300
0600
1C00
3000
6180
C380
FF00
ENDCHAR

STARTCHAR bracketleft
ENCODING 91
SWIDTH 260 0
DWIDTH 4 0
BBX 5 14 0 -3
BITMAP
38
30
30
30
60
60
60
60
60
60
C0
C0
C0
E0
ENDCHAR

STARTCHAR backslash
ENCODING 92
SWIDTH 580 0
DWIDTH 9 0
BBX 8 14 1 -3
BITMAP
C0
C0
60
60
30
30
18
18
0C
0C
06
06
03
03
ENDCHAR

STARTCHAR bracketright
ENCODING 93
SWIDTH 260 0
DWIDTH 4 0
BBX 5 14 0 -3
BITMAP
38
18
18
18
30
30
30
30
30
30
60
60
60
E0
ENDCHAR

STARTCHAR asciicircum
ENCODING 94
SWIDTH 620 0
DWIDTH 9 0
BBX 7 6 1 4
BITMAP
10
38
28
6C
44
C6
ENDCHAR

STARTCHAR underscore
ENCODING 95
SWIDTH 500 0
DWIDTH 8 0
BBX 8 1 0 -2
BITMAP
FF
ENDCHAR

STARTCHAR quoteleft
ENCODING 96
SWIDTH 320 0
DWIDTH 5 0
BBX 3 4 2 7
BITMAP
20
40
C0
C0
ENDCHAR

STARTCHAR a
ENCODING 97
SWIDTH 680 0
DWIDTH 10 0
BBX 10 7 1 0
BITMAP
0D80
3380
6180
6300
C300
E740
7B80
ENDCHAR

STARTCHAR b
ENCODING 98
SWIDTH 600 0
DWIDTH 9 0
BBX 8 11 1 0
BITMAP
20
E0
60
60
6E
73
63
C3
C6
CE
B8
ENDCHAR

STARTCHAR c
ENCODING 99
SWIDTH 560 0
DWIDTH 8 0
BBX 7 7 1 0
BITMAP
1C
76
62
E0
C0
C6
7C
ENDCHAR

STARTCHAR d
ENCODING 100
SWIDTH 680 0
DWIDTH 10 0
BBX 9 11 1 0
BITMAP
0080
0380
0180
0180
1F00
7300
6300
C600
C600
C680
7B00
ENDCHAR

STARTCHAR e
ENCODING 101
SWIDTH 560 0
DWIDTH 9 0
BBX 8 7 1 0
BITMAP
1E
73
63
FE
C0
C6
7C
ENDCHAR

STARTCHAR f
ENCODING 102
SWIDTH 420 0
DWIDTH 6 0
BBX 11 14 -2 -3
BITMAP
01C0
0360
0320
0600
0F00
0600
0600
0600
0C00
0C00
0C00
4C00
E800
7000
ENDCHAR

STARTCHAR g
ENCODING 103
SWIDTH 620 0
DWIDTH 9 0
BBX 10 10 0 -3
BITMAP
0EC0
39C0
30C0
6180
6180
6380
3D00
0300
C600
7C00
ENDCHAR

STARTCHAR h
ENCODING 104
SWIDTH 700 0
DWIDTH 10 0
BBX 9 11 1 0
BITMAP
1000
7000
3000
3000
6600
6B00
7300
6300
C600
C680
C300
ENDCHAR

STARTCHAR i
ENCODING 105
SWIDTH 380 0
DWIDTH 6 0
BBX 4 11 2 0
BITMAP
30
30
00
00
20
E0
60
C0
C0
D0
60
ENDCHAR

STARTCHAR j
ENCODING 106
SWIDTH 320 0
DWIDTH 5 0
BBX 8 14 -2 -3
BITMAP
03
03
00
00
02
1E
06
06
0C
0C
0C
98
D8
70
ENDCHAR

STARTCHAR k
ENCODING 107
SWIDTH 700 0
DWIDTH 10 0
BBX 9 11 1 0
BITMAP
1000
7000
3000
3000
6700
6D80
7800
7800
CC00
CC80
C700
ENDCHAR

STARTCHAR l
ENCODING 108
SWIDTH 380 0
DWIDTH 6 0
BBX 4 11 2 0
BITMAP
10
70
30
30
60
60
60
C0
C0
D0
60
ENDCHAR

STARTCHAR m
ENCODING 109
SWIDTH 960 0
DWIDTH 14 0
BBX 12 7 2 0
BITMAP
2EC0
FFE0
6660
6660
CCC0
CCD0
CC60
ENDCHAR

STARTCHAR n
ENCODING 110
SWIDTH 680 0
DWIDTH 10 0
BBX 9 7 1 0
BITMAP
2600
EB00
7300
6300
C600
C680
C300
ENDCHAR

STARTCHAR o
ENCODING 111
SWIDTH 600 0
DWIDTH 9 0
BBX 8 7 1 0
BITMAP
1E
73
63
C3
C7
CE
78
ENDCHAR

STARTCHAR p
ENCODING 112
SWIDTH 660 0
DWIDTH 10 0
BBX 10 10 0 -3
BITMAP
1B80
7CC0
38C0
30C0
3180
3380
6E00
6000
6000
F000
ENDCHAR

STARTCHAR q
ENCODING 113
SWIDTH 620 0
DWIDTH 9 0
BBX 9 10 1 -3
BITMAP
1D80
7780
6300
C300
C700
CB00
7600
0600
0600
0F00
ENDCHAR

STARTCHAR r
ENCODING 114
SWIDTH 500 0
DWIDTH 8 0
BBX 7 7 2 0
BITMAP
2E
FC
60
60
C0
C0
C0
ENDCHAR

STARTCHAR s
ENCODING 115
SWIDTH 540 0
DWIDTH 8 0
BBX 7 7 1 0
BITMAP
3C
66
70
3C
0E
C6
7C
ENDCHAR

STARTCHAR t
ENCODING 116
SWIDTH 440 0
DWIDTH 7 0
BBX 5 10 2 0
BITMAP
10
10
30
F8
60
60
C0
C0
C8
70
ENDCHAR

STARTCHAR u
ENCODING 117
SWIDTH 680 0
DWIDTH 10 0
BBX 9 7 1 0
BITMAP
2100
E700
6300
6300
C600
CE80
7700
ENDCHAR

STARTCHAR v
ENCODING 118
SWIDTH 540 0
DWIDTH 8 0
BBX 7 7 1 0
BITMAP
24
E6
66
66
CC
C8
70
ENDCHAR

STARTCHAR w
ENCODING 119
SWIDTH 860 0
DWIDTH 13 0
BBX 12 7 1 0
BITMAP
2320
E330
6330
6630
CE60
CA40
7380
ENDCHAR

STARTCHAR x
ENCODING 120
SWIDTH 620 0
DWIDTH 9 0
BBX 10 7 0 0
BITMAP
08C0
3980
1B00
0E00
9C00
F640
6380
ENDCHAR

STARTCHAR y
ENCODING 121
SWIDTH 600 0
DWIDTH 9 0
BBX 10 10 -1 -3
BITMAP
18C0
38C0
1980
3180
3180
3700
1B00
4600
EE00
3800
ENDCHAR

STARTCHAR z
ENCODING 122
SWIDTH 560 0
DWIDTH 7 0
BBX 8 7 0 0
BITMAP
3B
6E
0C
18
30
76
DC
ENDCHAR

STARTCHAR braceleft
ENCODING 123
SWIDTH 300 0
DWIDTH 5 0
BBX 4 14 1 -3
BITMAP
10
20
60
60
60
20
C0
40
C0
C0
C0
C0
40
20
ENDCHAR

STARTCHAR bar
ENCODING 124
SWIDTH 620 0
DWIDTH 9 0
BBX 2 14 4 -3
BITMAP
C0
C0
C0
C0
C0
C0
C0
C0
C0
C0
C0
C0
C0
C0
ENDCHAR

STARTCHAR braceright
ENCODING 125
SWIDTH 300 0
DWIDTH 5 0
BBX 4 14 0 -3
BITMAP
40
20
30
30
30
30
20
30
40
60
60
60
40
80
ENDCHAR

STARTCHAR asciitilde
ENCODING 126
SWIDTH 620 0
DWIDTH 9 0
BBX 7 2 1 4
BITMAP
7A
BC
ENDCHAR

STARTCHAR space
ENCODING 160
SWIDTH 340 0
DWIDTH 6 0
BBX 0 0 0 0
BITMAP
ENDCHAR

STARTCHAR Aogonek
ENCODING 161
SWIDTH 720 0
DWIDTH 11 0
BBX 12 12 0 -2
BITMAP
0180
0380
0780
0580
0D80
18C0
1FC0
30C0
60C0
F1E0
0040
0070
ENDCHAR

STARTCHAR afii240
ENCODING 162
SWIDTH 500 0
DWIDTH 8 0
BBX 7 7 1 0
BITMAP
26
EC
78
70
D8
D8
DC
ENDCHAR

STARTCHAR Rcommaaccent
ENCODING 163
SWIDTH 740 0
DWIDTH 11 0
BBX 11 14 1 -4
BITMAP
3F80
18C0
1860
3060
30C0
3F00
3300
6180
60C0
F1E0
0000
0C00
0800
1000
ENDCHAR

STARTCHAR currency
ENCODING 164
SWIDTH 680 0
DWIDTH 10 0
BBX 8 8 2 2
BITMAP
42
FF
66
42
42
66
FF
5A
ENDCHAR

STARTCHAR Itilde
ENCODING 165
SWIDTH 380 0
DWIDTH 6 0
BBX 7 13 1 0
BITMAP
1A
2C
00
3C
18
18
30
30
30
30
60
60
F0
ENDCHAR

STARTCHAR Lcommaaccent
ENCODING 166
SWIDTH 640 0
DWIDTH 10 0
BBX 9 14 1 -4
BITMAP
3C00
1800
1800
3000
3000
3000
3000
6180
6380
FF00
0000
1800
1000
2000
ENDCHAR

STARTCHAR section
ENCODING 167
SWIDTH 620 0
DWIDTH 9 0
BBX 9 13 1 -3
BITMAP
1F00
3380
3180
1C00
3F00
6780
6180
7980
3F80
0F00
C300
E600
7C00
ENDCHAR

STARTCHAR hungarumlaut
ENCODING 168
SWIDTH 560 0
DWIDTH 8 0
BBX 7 2 2 8
BITMAP
66
CC
ENDCHAR

STARTCHAR Scaron
ENCODING 169
SWIDTH 700 0
DWIDTH 10 0
BBX 10 13 1 0
BITMAP
0D80
0700
0000
1F40
33C0
60C0
7040
3E00
1F00
8380
C180
E300
BE00
ENDCHAR

STARTCHAR Emacron
ENCODING 170
SWIDTH 720 0
DWIDTH 11 0
BBX 11 12 0 0
BITMAP
0FC0
0000
3FC0
18E0
1860
3100
3F00
3100
3000
6060
60E0
FFC0
ENDCHAR

STARTCHAR Gcommaaccent
ENCODING 171
SWIDTH 760 0
DWIDTH 11 0
BBX 11 14 1 -4
BITMAP
0F40
39C0
70C0
6040
E000
C3E0
C1C0
C180
6380
3D80
0000
1800
1000
2000
ENDCHAR

STARTCHAR afii237
ENCODING 172
SWIDTH 611 0
DWIDTH 9 0
BBX 10 10 1 0
BITMAP
7F80
6D80
4C80
CCC0
1800
7E00
1800
3000
3000
7800
ENDCHAR

STARTCHAR hyphen
ENCODING 173
SWIDTH 280 0
DWIDTH 4 0
BBX 4 2 1 3
BITMAP
F0
F0
ENDCHAR

STARTCHAR Zcaron
ENCODING 174
SWIDTH 680 0
DWIDTH 10 0
BBX 11 13 1 0
BITMAP
06C0
0380
0000
1FE0
38C0
3180
0300
0600
1C00
3000
6180
C380
FF00
ENDCHAR

STARTCHAR macron
ENCODING 175
SWIDTH 480 0
DWIDTH 7 0
BBX 5 1 3 9
BITMAP
F8
ENDCHAR

STARTCHAR degree
ENCODING 176
SWIDTH 400 0
DWIDTH 6 0
BBX 4 4 3 6
BITMAP
60
90
90
60
ENDCHAR

STARTCHAR aogonek
ENCODING 177
SWIDTH 680 0
DWIDTH 10 0
BBX 10 9 1 -2
BITMAP
0D80
3380
6180
6300
C300
E740
7B80
0100
01C0
ENDCHAR

STARTCHAR ogonek
ENCODING 178
SWIDTH 320 0
DWIDTH 5 0
BBX 3 3 0 -3
BITMAP
80
80
E0
ENDCHAR

STARTCHAR rcommaaccent
ENCODING 179
SWIDTH 500 0
DWIDTH 8 0
BBX 7 11 1 -4
BITMAP
2E
FC
60
60
C0
C0
C0
00
60
40
80
ENDCHAR

STARTCHAR acute
ENCODING 180
SWIDTH 340 0
DWIDTH 5 0
BBX 3 2 3 8
BITMAP
60
C0
ENDCHAR

STARTCHAR itilde
ENCODING 181
SWIDTH 380 0
DWIDTH 6 0
BBX 6 10 2 0
BITMAP
34
58
00
20
E0
60
C0
C0
D0
60
ENDCHAR

STARTCHAR lcommaaccent
ENCODING 182
SWIDTH 380 0
DWIDTH 6 0
BBX 5 15 1 -4
BITMAP
08
38
18
18
30
30
30
60
60
68
30
00
60
40
80
ENDCHAR

STARTCHAR caron
ENCODING 183
SWIDTH 480 0
DWIDTH 7 0
BBX 5 2 3 9
BITMAP
D8
70
ENDCHAR

STARTCHAR commaaccent
ENCODING 184
SWIDTH 333 0
DWIDTH 5 0
BBX 3 3 1 -4
BITMAP
60
40
80
ENDCHAR

STARTCHAR scaron
ENCODING 185
SWIDTH 540 0
DWIDTH 8 0
BBX 8 10 1 0
BITMAP
1B
0E
00
3C
66
70
3C
0E
C6
7C
ENDCHAR

STARTCHAR emacron
ENCODING 186
SWIDTH 560 0
DWIDTH 9 0
BBX 8 10 1 0
BITMAP
1F
00
00
1E
73
63
FE
C0
C6
7C
ENDCHAR

STARTCHAR gcommaaccent
ENCODING 187
SWIDTH 620 0
DWIDTH 9 0
BBX 10 14 0 -3
BITMAP
0100
0200
0600
0000
0EC0
39C0
30C0
6180
6180
6380
3D00
0300
C600
7C00
ENDCHAR

STARTCHAR afii253
ENCODING 188
SWIDTH 278 0
DWIDTH 7 0
BBX 6 10 1 0
BITMAP
08
08
18
7C
30
FC
60
60
64
38
ENDCHAR

STARTCHAR afii238
ENCODING 189
SWIDTH 775 0
DWIDTH 12 0
BBX 12 10 0 0
BITMAP
3DE0
1A30
1C30
3830
3030
3060
3060
6060
66C0
F780
ENDCHAR

STARTCHAR zcaron
ENCODING 190
SWIDTH 560 0
DWIDTH 7 0
BBX 8 10 0 0
BITMAP
1B
0E
00
3B
6E
0C
18
30
76
DC
ENDCHAR

STARTCHAR afii254
ENCODING 191
SWIDTH 477 0
DWIDTH 10 0
BBX 8 10 1 -3
BITMAP
26
EB
73
63
C6
C6
C6
0C
0C
38
ENDCHAR

STARTCHAR Amacron
ENCODING 192
SWIDTH 720 0
DWIDTH 11 0
BBX 11 12 0 0
BITMAP
07E0
0000
0180
0380
0780
0580
0D80
18C0
1FC0
30C0
60C0
F1E0
ENDCHAR

STARTCHAR Aacute
ENCODING 193
SWIDTH 720 0
DWIDTH 11 0
BBX 11 13 0 0
BITMAP
00C0
0180
0000
0180
0380
0780
0580
0D80
18C0
1FC0
30C0
60C0
F1E0
ENDCHAR

STARTCHAR Acircumflex
ENCODING 194
SWIDTH 720 0
DWIDTH 11 0
BBX 11 13 0 0
BITMAP
01C0
0360
0000
0180
0380
0780
0580
0D80
18C0
1FC0
30C0
60C0
F1E0
ENDCHAR

STARTCHAR Atilde
ENCODING 195
SWIDTH 720 0
DWIDTH 11 0
BBX 12 13 0 0
BITMAP
01D0
02E0
0000
0180
0380
0780
0580
0D80
18C0
1FC0
30C0
60C0
F1E0
ENDCHAR

STARTCHAR Adieresis
ENCODING 196
SWIDTH 720 0
DWIDTH 11 0
BBX 11 13 0 0
BITMAP
0660
0660
0000
0180
0380
0780
0580
0D80
18C0
1FC0
30C0
60C0
F1E0
ENDCHAR

STARTCHAR Aring
ENCODING 197
SWIDTH 720 0
DWIDTH 11 0
BBX 11 13 0 0
BITMAP
0180
0240
0240
0180
0380
0780
0580
0D80
18C0
1FC0
30C0
60C0
F1E0
ENDCHAR

STARTCHAR AE
ENCODING 198
SWIDTH 1140 0
DWIDTH 17 0
BBX 16 10 1 0
BITMAP
1FFE
0C67
0C63
18C4
18FC
3FC8
30C8
6183
6187
F3FE
ENDCHAR

STARTCHAR Iogonek
ENCODING 199
SWIDTH 380 0
DWIDTH 6 0
BBX 6 12 1 -2
BITMAP
3C
18
18
30
30
30
30
60
60
F0
20
38
ENDCHAR

STARTCHAR Ccaron
ENCODING 200
SWIDTH 700 0
DWIDTH 10 0
BBX 10 13 1 0
BITMAP
0D80
0700
0000
0F40
39C0
70C0
6040
E000
C000
C000
C080
6180
3F00
ENDCHAR

STARTCHAR Eacute
ENCODING 201
SWIDTH 720 0
DWIDTH 11 0
BBX 11 13 0 0
BITMAP
0180
0300
0000
3FC0
18E0
1860
3100
3F00
3100
3000
6060
60E0
FFC0
ENDCHAR

STARTCHAR Eogonek
ENCODING 202
SWIDTH 720 0
DWIDTH 11 0
BBX 11 12 0 -2
BITMAP
3FC0
18E0
1860
3100
3F00
3100
3000
6060
60E0
FFC0
0080
00E0
ENDCHAR

STARTCHAR Edieresis
ENCODING 203
SWIDTH 720 0
DWIDTH 11 0
BBX 11 13 0 0
BITMAP
0CC0
0CC0
0000
3FC0
18E0
1860
3100
3F00
3100
3000
6060
60E0
FFC0
ENDCHAR

STARTCHAR Edotaccent
ENCODING 204
SWIDTH 720 0
DWIDTH 11 0
BBX 11 13 0 0
BITMAP
0300
0300
0000
3FC0
18E0
1860
3100
3F00
3100
3000
6060
60E0
FFC0
ENDCHAR

STARTCHAR Iacute
ENCODING 205
SWIDTH 380 0
DWIDTH 6 0
BBX 6 13 1 0
BITMAP
0C
18
00
3C
18
18
30
30
30
30
60
60
F0
ENDCHAR

STARTCHAR Icircumflex
ENCODING 206
SWIDTH 380 0
DWIDTH 6 0
BBX 7 13 1 0
BITMAP
1C
36
00
3C
18
18
30
30
30
30
60
60
F0
ENDCHAR

STARTCHAR Imacron
ENCODING 207
SWIDTH 380 0
DWIDTH 6 0
BBX 7 12 1 0
BITMAP
3E
00
3C
18
18
30
30
30
30
60
60
F0
ENDCHAR

STARTCHAR Eth
ENCODING 208
SWIDTH 760 0
DWIDTH 11 0
BBX 11 10 0 0
BITMAP
3F00
19C0
18E0
3060
7C60
3060
3060
60C0
6380
FE00
ENDCHAR

STARTCHAR Ncommaaccent
ENCODING 209
SWIDTH 740 0
DWIDTH 11 0
BBX 11 14 1 -4
BITMAP
3CE0
1C40
1C40
36C0
2680
2680
6680
4380
4300
E300
0000
0C00
0800
1000
ENDCHAR

STARTCHAR Omacron
ENCODING 210
SWIDTH 760 0
DWIDTH 11 0
BBX 10 12 1 0
BITMAP
0F80
0000
0F00
3980
60C0
60C0
C0C0
C0C0
C180
C180
6700
3C00
ENDCHAR

STARTCHAR Kcommaaccent
ENCODING 211
SWIDTH 780 0
DWIDTH 12 0
BBX 12 14 1 -4
BITMAP
3CF0
1860
19C0
3300
3600
3E00
3300
6180
61C0
F3E0
0000
0C00
0800
1000
ENDCHAR

STARTCHAR Ocircumflex
ENCODING 212
SWIDTH 760 0
DWIDTH 11 0
BBX 10 13 1 0
BITMAP
0700
0D80
0000
0F00
3980
60C0
60C0
C0C0
C0C0
C180
C180
6700
3C00
ENDCHAR

STARTCHAR Otilde
ENCODING 213
SWIDTH 760 0
DWIDTH 11 0
BBX 10 13 1 0
BITMAP
0740
0B80
0000
0F00
3980
60C0
60C0
C0C0
C0C0
C180
C180
6700
3C00
ENDCHAR

STARTCHAR Odieresis
ENCODING 214
SWIDTH 760 0
DWIDTH 11 0
BBX 10 13 1 0
BITMAP
1980
1980
0000
0F00
3980
60C0
60C0
C0C0
C0C0
C180
C180
6700
3C00
ENDCHAR

STARTCHAR multiply
ENCODING 215
SWIDTH 600 0
DWIDTH 9 0
BBX 7 7 2 2
BITMAP
42
C6
6C
38
38
6C
C6
ENDCHAR

STARTCHAR Oslash
ENCODING 216
SWIDTH 760 0
DWIDTH 11 0
BBX 10 10 1 0
BITMAP
0F40
3980
61C0
62C0
C4C0
C8C0
C980
D180
6700
BC00
ENDCHAR

STARTCHAR Uogonek
ENCODING 217
SWIDTH 740 0
DWIDTH 12 0
BBX 11 12 2 -2
BITMAP
78E0
3040
3040
60C0
6080
6080
C180
C100
E300
7E00
0800
0E00
ENDCHAR

STARTCHAR Uacute
ENCODING 218
SWIDTH 740 0
DWIDTH 12 0
BBX 11 13 2 0
BITMAP
0300
0600
0000
78E0
3040
3040
60C0
6080
6080
C180
C100
E300
7E00
ENDCHAR

STARTCHAR Ucircumflex
ENCODING 219
SWIDTH 740 0
DWIDTH 12 0
BBX 11 13 2 0
BITMAP
0380
06C0
0000
78E0
3040
3040
60C0
6080
6080
C180
C100
E300
7E00
ENDCHAR

STARTCHAR Udieresis
ENCODING 220
SWIDTH 740 0
DWIDTH 12 0
BBX 11 13 2 0
BITMAP
0CC0
0CC0
0000
78E0
3040
3040
60C0
6080
6080
C180
C100
E300
7E00
ENDCHAR

STARTCHAR Utilde
ENCODING 221
SWIDTH 740 0
DWIDTH 12 0
BBX 11 13 2 0
BITMAP
0740
0B80
0000
78E0
3040
3040
60C0
6080
6080
C180
C100
E300
7E00
ENDCHAR

STARTCHAR Umacron
ENCODING 222
SWIDTH 740 0
DWIDTH 12 0
BBX 11 12 2 0
BITMAP
1F80
0000
78E0
3040
3040
60C0
6080
6080
C180
C100
E300
7E00
ENDCHAR

STARTCHAR germandbls
ENCODING 223
SWIDTH 660 0
DWIDTH 10 0
BBX 12 14 -2 -3
BITMAP
00E0
03B0
0330
0670
0EC0
06C0
0660
0670
0E30
0D60
0CC0
0C00
D800
7000
ENDCHAR

STARTCHAR amacron
ENCODING 224
SWIDTH 680 0
DWIDTH 10 0
BBX 10 9 1 0
BITMAP
0F80
0000
0D80
3380
6180
6300
C300
E740
7B80
ENDCHAR

STARTCHAR aacute
ENCODING 225
SWIDTH 680 0
DWIDTH 10 0
BBX 10 10 1 0
BITMAP
0300
0600
0000
0D80
3380
6180
6300
C300
E740
7B80
ENDCHAR

STARTCHAR acircumflex
ENCODING 226
SWIDTH 680 0
DWIDTH 10 0
BBX 10 10 1 0
BITMAP
0700
0D80
0000
0D80
3380
6180
6300
C300
E740
7B80
ENDCHAR

STARTCHAR atilde
ENCODING 227
SWIDTH 680 0
DWIDTH 10 0
BBX 10 10 1 0
BITMAP
0E80
1700
0000
0D80
3380
6180
6300
C300
E740
7B80
ENDCHAR

STARTCHAR adieresis
ENCODING 228
SWIDTH 680 0
DWIDTH 10 0
BBX 10 10 1 0
BITMAP
1980
1980
0000
0D80
3380
6180
6300
C300
E740
7B80
ENDCHAR

STARTCHAR aring
ENCODING 229
SWIDTH 680 0
DWIDTH 10 0
BBX 10 11 1 0
BITMAP
0C00
1200
1200
0C00
0D80
3380
6180
6300
C300
E740
7B80
ENDCHAR

STARTCHAR ae
ENCODING 230
SWIDTH 880 0
DWIDTH 13 0
BBX 12 7 1 0
BITMAP
3EE0
6730
0E30
77E0
C600
C660
7BC0
ENDCHAR

STARTCHAR iogonek
ENCODING 231
SWIDTH 380 0
DWIDTH 6 0
BBX 5 13 2 -2
BITMAP
30
30
00
00
20
E0
60
C0
C0
D0
60
20
38
ENDCHAR

STARTCHAR ccaron
ENCODING 232
SWIDTH 560 0
DWIDTH 8 0
BBX 7 10 1 0
BITMAP
36
1C
00
1C
76
62
E0
C0
C6
7C
ENDCHAR

STARTCHAR eacute
ENCODING 233
SWIDTH 560 0
DWIDTH 9 0
BBX 8 10 1 0
BITMAP
03
06
00
1E
73
63
FE
C0
C6
7C
ENDCHAR

STARTCHAR eogonek
ENCODING 234
SWIDTH 560 0
DWIDTH 9 0
BBX 8 9 1 -2
BITMAP
1E
73
63
FE
C0
C6
7C
10
1C
ENDCHAR

STARTCHAR edieresis
ENCODING 235
SWIDTH 560 0
DWIDTH 9 0
BBX 9 10 1 0
BITMAP
1980
1980
0000
1E00
7300
6300
FE00
C000
C600
7C00
ENDCHAR

STARTCHAR edotaccent
ENCODING 236
SWIDTH 560 0
DWIDTH 9 0
BBX 8 10 1 0
BITMAP
0C
0C
00
1E
73
63
FE
C0
C6
7C
ENDCHAR

STARTCHAR iacute
ENCODING 237
SWIDTH 380 0
DWIDTH 6 0
BBX 5 10 2 0
BITMAP
18
30
00
20
E0
60
C0
C0
D0
60
ENDCHAR

STARTCHAR icircumflex
ENCODING 238
SWIDTH 380 0
DWIDTH 6 0
BBX 6 10 2 0
BITMAP
38
6C
00
20
E0
60
C0
C0
D0
60
ENDCHAR

STARTCHAR imacron
ENCODING 239
SWIDTH 380 0
DWIDTH 6 0
BBX 5 10 2 0
BITMAP
F8
00
00
20
E0
60
C0
C0
D0
60
ENDCHAR

STARTCHAR dcroat
ENCODING 240
SWIDTH 680 0
DWIDTH 10 0
BBX 10 11 1 0
BITMAP
0080
07C0
0180
0180
1F00
7300
6300
C600
C600
C680
7B00
ENDCHAR

STARTCHAR ncommaaccent
ENCODING 241
SWIDTH 680 0
DWIDTH 10 0
BBX 9 11 2 -4
BITMAP
2600
EB00
7300
6700
C600
C780
C300
0000
3000
2000
4000
ENDCHAR

STARTCHAR omacron
ENCODING 242
SWIDTH 600 0
DWIDTH 9 0
BBX 8 10 1 0
BITMAP
1F
00
00
1E
73
63
C3
C7
CE
78
ENDCHAR

STARTCHAR kcommaaccent
ENCODING 243
SWIDTH 700 0
DWIDTH 10 0
BBX 9 15 1 -4
BITMAP
1000
7000
3000
3000
6700
6D80
7800
7800
CC00
CC80
C700
0000
1800
1000
2000
ENDCHAR

STARTCHAR ocircumflex
ENCODING 244
SWIDTH 600 0
DWIDTH 9 0
BBX 8 10 1 0
BITMAP
0E
1B
00
1E
73
63
C3
C7
CE
78
ENDCHAR

STARTCHAR otilde
ENCODING 245
SWIDTH 600 0
DWIDTH 9 0
BBX 8 10 1 0
BITMAP
1D
2E
00
1E
73
63
C3
C7
CE
78
ENDCHAR

STARTCHAR odieresis
ENCODING 246
SWIDTH 600 0
DWIDTH 9 0
BBX 8 10 1 0
BITMAP
33
33
00
1E
73
63
C3
C7
CE
78
ENDCHAR

STARTCHAR divide
ENCODING 247
SWIDTH 600 0
DWIDTH 9 0
BBX 8 7 2 2
BITMAP
18
18
00
FF
00
18
18
ENDCHAR

STARTCHAR oslash
ENCODING 248
SWIDTH 600 0
DWIDTH 9 0
BBX 8 7 1 0
BITMAP
1F
77
6B
CB
D7
EE
F8
ENDCHAR

STARTCHAR uogonek
ENCODING 249
SWIDTH 680 0
DWIDTH 10 0
BBX 9 9 1 -2
BITMAP
2100
E700
6300
6300
C600
CE80
7700
0200
0380
ENDCHAR

STARTCHAR uacute
ENCODING 250
SWIDTH 680 0
DWIDTH 10 0
BBX 9 10 1 0
BITMAP
0600
0C00
0000
2100
E700
6300
6300
C600
CE80
7700
ENDCHAR

STARTCHAR ucircumflex
ENCODING 251
SWIDTH 680 0
DWIDTH 10 0
BBX 9 10 1 0
BITMAP
0E00
1B00
0000
2100
E700
6300
6300
C600
CE80
7700
ENDCHAR

STARTCHAR udieresis
ENCODING 252
SWIDTH 680 0
DWIDTH 10 0
BBX 9 10 1 0
BITMAP
1980
1980
0000
2100
E700
6300
6300
C600
CE80
7700
ENDCHAR

STARTCHAR utilde
ENCODING 253
SWIDTH 680 0
DWIDTH 10 0
BBX 9 10 1 0
BITMAP
0E80
1700
0000
2100
E700
6300
6300
C600
CE80
7700
ENDCHAR

STARTCHAR umacron
ENCODING 254
SWIDTH 680 0
DWIDTH 10 0
BBX 9 9 1 0
BITMAP
1F00
0000
2100
E700
6300
6300
C600
CE80
7700
ENDCHAR

STARTCHAR dotaccent
ENCODING 255
SWIDTH 380 0
DWIDTH 6 0
BBX 2 2 4 9
BITMAP
C0
C0
ENDCHAR
ENDFONT
